<?xml version="1.0" encoding="utf-8"?>
<!-- Generator: Adobe Illustrator 17.0.0, SVG Export Plug-In . SVG Version: 6.00 Build 0)  -->
<!DOCTYPE svg PUBLIC "-//W3C//DTD SVG 1.1//EN" "http://www.w3.org/Graphics/SVG/1.1/DTD/svg11.dtd">
<svg version="1.1" id="Layer_1" xmlns="http://www.w3.org/2000/svg" xmlns:xlink="http://www.w3.org/1999/xlink" x="0px" y="0px"
	 width="102.047px" height="102.047px" viewBox="0 0 102.047 102.047" enable-background="new 0 0 102.047 102.047"
	 xml:space="preserve">
<g>
	<path fill="#FFF9C5" stroke="#000000" stroke-linejoin="round" stroke-miterlimit="10" d="M-43.034-237.346
		c-15.34,11.565-16.144,32.526-8.983,46.284c11.958,22.977,39.823,32.147,62.236,20.482s30.889-39.748,18.931-62.725
		s-39.823-32.147-62.236-20.482c-3.845,2.001-7.279,1.257-11.45,3.311c-1.643,0.809-4.177,3.549-4.257,7.114
		c-0.064,2.835,0.628,5.068,3.521,4.15c2.371-0.752,7.045-2.977,7.045-2.977s-2.672,5.273-3.054,7.059
		c-0.24,1.125,2.85,2.47,3.866,2.454c1.938-0.031,5.74-2.033,7.773-5.653c1.003-1.785,0.838-4.424,2.157-5.216l-0.213,0.11
		c15.718-8.181,35.743-0.821,44.725,16.439s3.522,37.883-12.196,46.063c-11.217,5.838-22.857,4.312-34.652-4.179
		C-48.639-198.657-51.934-216.18-43.034-237.346z"/>
	<circle fill="#878787" stroke="#000000" stroke-linejoin="round" stroke-miterlimit="10" cx="-42.775" cy="-246.87" r="1.663"/>
	<g>
		<path fill="#D6B874" stroke="#000000" stroke-linejoin="round" stroke-miterlimit="10" d="M-29.821-185.111"/>
		<g>
			<g>
				<path fill="#D6B874" stroke="#000000" stroke-width="1.0297" stroke-linejoin="round" stroke-miterlimit="10" d="
					M-49.521-230.849l0.709,3.668l-5.614,5.7l2.872,7.771l-4.69,7.596l6.643,6.025l-2.357,8.996l8.762,3.295l0.767,9.329
					l9.357,0.252l3.763,8.572l8.923-2.822l6.405,6.827l7.407-5.713l8.415,4.091l4.797-8.033l9.391,0.641l1.555-9.288l9.718-2.281
					l-2.48-9.748l8.674-5.315l-5.807-8.475l6.421-8.123l-8.25-5.808l3.291-9.614l-9.725-2.897l-0.156-10.101l-9.972,0.401
					l-3.579-9.213l-9.236,3.75l-6.283-7.405l-7.654,7.026l-8.457-5.024c20.884-6.62,44.352,2.884,55.062,23.462
					c11.958,22.977,3.483,51.06-18.931,62.725s-50.278,2.495-62.236-20.482c-5.975-11.481-6.405-27.978,2.531-39.844
					L-49.521-230.849z"/>
			</g>
		</g>
	</g>
</g>
<g>
	<g>
		<path d="M152.295-96.871c7.968,15.464,6.526,31.398,1.21,40.888c-12.66,22.598-41.385,30.109-63.185,17.334
			s-28.857-41.248-15.761-63.596s41.385-30.109,63.185-17.334c3.74,2.191,8.187-2.398,15.616,3.288
			c3.191,2.443,3.966,7.071,3.868,10.636c-0.078,2.834-3.195,4.127-7.043,1.244c-2.263-1.695-6.322-4.785-7.887-3.326
			c-1.579,1.472,0.936,5.953,2.696,8.203c2.557,3.268,1.405,5.191-0.916,5.578c-3.133,0.522-7.575,0.587-10.439-3.809
			c-4.258-6.536-0.725-11.008-2.003-11.865l0.207,0.12c-15.288-8.959-35.656-2.613-45.494,14.175s-5.418,37.658,9.87,46.617
			c10.91,6.393,22.612,5.453,34.818-2.435C150.511-63.738,151.117-99.158,152.295-96.871z"/>
		<circle fill="#FFFFFF" cx="149.259" cy="-112.509" r="2.723"/>
		<g>
			<g>
				<g>
					<path fill="#9D9D9C" d="M154.178-78.626l3.756,7.753l-6.389,5.753l1.903,9.103l-8.916,2.851l-1.234,9.279l-9.358-0.217
						l-4.188,8.372l-8.77-3.266l-6.739,6.498l-7.111-6.077l-8.61,3.664l-4.388-8.263l-9.411,0.169l-1.087-9.355l-9.591-2.765
						l2.966-9.612l-8.397-5.744l6.224-8.173l-6.005-8.435l8.531-5.387l-2.805-9.767l9.858-2.406l0.663-10.08l9.939,0.901
						l4.037-9.022l9.036,4.209l6.647-7.08l7.292,7.401l8.698-4.593c-20.526-7.659-44.441,0.656-56.17,20.671
						C61.463-79.897,68.52-51.424,90.32-38.649s49.414,6.416,63.185-17.334c4.918-8.482,5.811-19.914,2.832-30.338L154.178-78.626z"
						/>
				</g>
			</g>
			<path fill="#D6B874" stroke="#000000" stroke-width="3" stroke-linejoin="round" stroke-miterlimit="10" d="M131.038-51.154"/>
		</g>
	</g>
</g>
<g>
	<g>
		<path d="M4.338,83.165c8.677-15.077,22.849-22.503,33.705-23.178c25.853-1.61,59.408-7.625,60.488,17.619
			c1.08,25.244-14.094,19.039-39.973,20.146C32.679,98.859,10.824,79.293,9.744,54.048c-0.185-4.33-6.453-5.581-5.7-14.905
			c0.323-4.005,3.793-7.165,6.842-9.015c2.424-1.47,5.2,0.448,4.863,5.244c-0.198,2.821-0.595,7.906,1.48,8.431
			c2.093,0.529,4.496-4.013,5.432-6.712c1.36-3.92,3.601-3.994,5.184-2.254c2.137,2.35,4.599,6.047,2.457,10.837
			c-3.185,7.121-8.858,6.575-8.886,8.114l-0.011-0.239c0.758,17.704,17.131,31.381,36.57,30.549s39.668,8.077,28.897-5.994
			c-4.672-6.104-15.359-4.997-28.807-5.058C24.76,72.896,3.055,85.395,4.338,83.165z"/>
		<g>
			<g>
				<g>
					<path fill="#9D9D9C" d="M24.738,63.72l6.365,2.866l6.618-6.533l7.533,4.855l7.697-5.848l7.377,6.601l9.032-7.309l4.375,7.008
						l7.111-6.759l2.082,8.718l11.052-1.541l-4.271,7.418l8.876,3.767l-5.561,5.576l4.219,7.083l-10.096,0.603l-2.073,7.088
						l-6.668-7.39l-5.123,7.741l-8.363-7.564l-6.687,7.651l-7.365-6.98l-8.83,4.907l-4.63-8.841l-9.77,1.498l-1.361-9.875
						l-9.553-1.748l2.268-10.14l-8.574-4.82c4.689,21.401,24.639,36.992,47.816,36c25.879-1.108,41.053,5.098,39.973-20.146
						c-1.08-25.244-33.065-18.919-60.488-17.619"/>
				</g>
			</g>
			<path fill="#D6B874" stroke="#000000" stroke-width="3" stroke-linejoin="round" stroke-miterlimit="10" d="M54.279,76.249"/>
		</g>
	</g>
</g>
<path fill="none" stroke="#FFFFFF" stroke-width="5" stroke-miterlimit="10" d="M25.746,62.22
	c1.63,4.346,7.427,12.648,14.061,14.904"/>
<path fill="none" stroke="#FFFFFF" stroke-width="5" stroke-miterlimit="10" d="M9.944,68.689
	c2.098,4.275,4.538,10.312,8.014,13.857"/>
<g>
	<path d="M50.659,43.261c0-2.182,1.515-3.757,3.575-3.757c2.181,0,3.575,1.575,3.575,3.757c0,2.12-1.394,3.757-3.575,3.757
		C52.113,47.018,50.659,45.381,50.659,43.261z M52.174,34.596L51.325,5.511h5.817l-0.848,29.085H52.174z"/>
</g>
<line fill="none" stroke="#FFFFFF" stroke-width="3" stroke-linecap="round" stroke-miterlimit="10" x1="6.779" y1="36.509" x2="13.884" y2="43.615"/>
<line fill="none" stroke="#FFFFFF" stroke-width="3" stroke-linecap="round" stroke-miterlimit="10" x1="13.884" y1="36.509" x2="6.779" y2="43.615"/>
<g>
	<path fill="#FFF9C5" stroke="#000000" stroke-linejoin="round" stroke-miterlimit="10" d="M146.065-237.782
		c15.34,11.565,16.144,32.526,8.983,46.284c-11.958,22.977-39.823,32.147-62.236,20.482s-30.889-39.748-18.931-62.725
		s39.823-32.147,62.236-20.482c3.845,2.001,7.279,1.257,11.45,3.311c1.643,0.809,4.177,3.549,4.257,7.114
		c0.064,2.835-0.628,5.068-3.521,4.15c-2.371-0.752-7.045-2.977-7.045-2.977s2.672,5.273,3.054,7.059
		c0.24,1.125-2.85,2.47-3.866,2.454c-1.938-0.031-5.74-2.033-7.773-5.653c-1.003-1.785-0.838-4.424-2.157-5.216l0.213,0.11
		c-15.718-8.181-35.743-0.821-44.725,16.439s-3.522,37.883,12.196,46.063c11.217,5.838,22.857,4.312,34.652-4.179
		C151.669-199.092,154.965-216.616,146.065-237.782z"/>
	<circle fill="#878787" stroke="#000000" stroke-linejoin="round" stroke-miterlimit="10" cx="145.806" cy="-247.305" r="1.663"/>
	<g>
		<path fill="#D6B874" stroke="#000000" stroke-linejoin="round" stroke-miterlimit="10" d="M132.852-185.547"/>
		<g>
			<g>
				<path fill="#D6B874" stroke="#000000" stroke-width="1.0297" stroke-linejoin="round" stroke-miterlimit="10" d="
					M152.551-231.284l-0.709,3.668l5.614,5.7l-2.872,7.771l4.69,7.596l-6.643,6.025l2.357,8.996l-8.762,3.295l-0.767,9.329
					l-9.357,0.252l-3.763,8.572l-8.923-2.822l-6.405,6.827l-7.407-5.713l-8.415,4.091l-4.797-8.033l-9.391,0.641l-1.555-9.288
					l-9.718-2.281l2.48-9.748l-8.674-5.315l5.807-8.475l-6.421-8.123l8.25-5.808l-3.291-9.614l9.725-2.897l0.156-10.101l9.972,0.401
					l3.579-9.213l9.236,3.75l6.283-7.405l7.654,7.026l8.457-5.024c-20.884-6.62-44.352,2.884-55.062,23.462
					c-11.958,22.977-3.483,51.06,18.931,62.725s50.278,2.495,62.236-20.482c5.975-11.481,6.405-27.978-2.531-39.844L152.551-231.284
					z"/>
			</g>
		</g>
	</g>
</g>
<g>
	<g>
		<path d="M-51.624-101c-7.968,15.464-6.526,31.398-1.21,40.888c12.66,22.598,41.385,30.109,63.185,17.334
			s28.857-41.248,15.761-63.596s-41.385-30.109-63.185-17.334c-3.74,2.191-8.187-2.398-15.616,3.288
			c-3.191,2.443-3.966,7.071-3.868,10.636c0.078,2.834,3.195,4.127,7.043,1.244c2.263-1.695,6.322-4.785,7.887-3.326
			c1.579,1.472-0.936,5.953-2.696,8.203c-2.557,3.268-1.405,5.191,0.916,5.578c3.133,0.522,7.575,0.587,10.439-3.809
			c4.258-6.536,0.725-11.008,2.003-11.865l-0.207,0.12c15.288-8.959,35.656-2.613,45.494,14.175s5.418,37.658-9.87,46.617
			c-10.91,6.393-22.612,5.453-34.818-2.435C-49.84-67.866-50.446-103.287-51.624-101z"/>
		<circle fill="#FFFFFF" cx="-48.588" cy="-116.637" r="2.723"/>
		<g>
			<g>
				<g>
					<path fill="#9D9D9C" d="M-53.506-82.754l-3.756,7.753l6.389,5.753l-1.903,9.103l8.916,2.851l1.234,9.279l9.358-0.217
						l4.188,8.372l8.77-3.266l6.739,6.498l7.111-6.077l8.61,3.664l4.388-8.263l9.411,0.169l1.087-9.355l9.591-2.765l-2.966-9.612
						l8.397-5.744l-6.224-8.173l6.005-8.435l-8.531-5.387l2.805-9.767l-9.858-2.406l-0.663-10.08l-9.939,0.901l-4.037-9.022
						l-9.036,4.209l-6.647-7.08l-7.292,7.401l-8.698-4.593c20.526-7.659,44.441,0.656,56.17,20.671
						c13.096,22.348,6.04,50.821-15.761,63.596s-49.414,6.416-63.185-17.334c-4.918-8.482-5.811-19.914-2.832-30.338L-53.506-82.754
						z"/>
				</g>
			</g>
			<path fill="#D6B874" stroke="#000000" stroke-width="3" stroke-linejoin="round" stroke-miterlimit="10" d="M-30.367-55.282"/>
		</g>
	</g>
</g>
</svg>
