<?xml version="1.0" encoding="utf-8"?>
<!-- Generator: Adobe Illustrator 17.0.0, SVG Export Plug-In . SVG Version: 6.00 Build 0)  -->
<!DOCTYPE svg PUBLIC "-//W3C//DTD SVG 1.1//EN" "http://www.w3.org/Graphics/SVG/1.1/DTD/svg11.dtd">
<svg version="1.1" id="Layer_1" xmlns="http://www.w3.org/2000/svg" xmlns:xlink="http://www.w3.org/1999/xlink" x="0px" y="0px"
	 width="102.047px" height="102.047px" viewBox="0 0 102.047 102.047" enable-background="new 0 0 102.047 102.047"
	 xml:space="preserve">
<g>
	<g>
		<path d="M89.079,33.111c7.968,15.464,6.526,31.398,1.21,40.888c-12.66,22.598-41.385,30.109-63.185,17.334
			S-1.752,50.086,11.343,27.738S52.728-2.372,74.529,10.403c3.74,2.191,8.187-2.398,15.616,3.288
			c3.191,2.443,3.966,7.071,3.868,10.636c-0.078,2.834-3.195,4.127-7.043,1.244c-2.263-1.695-6.322-4.785-7.887-3.326
			c-1.579,1.472,0.936,5.953,2.696,8.203c2.557,3.268,1.405,5.191-0.916,5.578c-3.133,0.522-7.575,0.587-10.439-3.809
			c-4.258-6.536-0.725-11.008-2.003-11.865l0.207,0.12C53.34,11.514,32.972,17.86,23.134,34.647s-5.418,37.658,9.87,46.617
			c10.91,6.393,22.612,5.453,34.818-2.435C87.296,66.244,87.901,30.824,89.079,33.111z"/>
		<circle fill="#FFFFFF" cx="86.044" cy="17.474" r="2.723"/>
		<g>
			<g>
				<g>
					<path fill="#9D9D9C" d="M90.962,51.356l3.756,7.753l-6.389,5.753l1.903,9.103l-8.916,2.851l-1.234,9.279l-9.358-0.217
						l-4.188,8.372l-8.77-3.266l-6.739,6.498l-7.111-6.077l-8.61,3.664l-4.388-8.263l-9.411,0.169l-1.087-9.355l-9.591-2.765
						l2.966-9.612l-8.397-5.744l6.224-8.173l-6.005-8.435l8.531-5.387l-2.805-9.767l9.858-2.406l0.663-10.08l9.939,0.901L35.84,7.13
						l9.036,4.209l6.647-7.08l7.292,7.401l8.698-4.593c-20.526-7.659-44.441,0.656-56.17,20.671
						c-13.096,22.348-6.04,50.821,15.761,63.596s49.414,6.416,63.185-17.334c4.918-8.482,5.811-19.914,2.832-30.338L90.962,51.356z"
						/>
				</g>
			</g>
			<path fill="#D6B874" stroke="#000000" stroke-width="3" stroke-linejoin="round" stroke-miterlimit="10" d="M67.822,78.829"/>
		</g>
	</g>
</g>
</svg>
