<?xml version="1.0" encoding="utf-8"?>
<!-- Generator: Adobe Illustrator 17.0.0, SVG Export Plug-In . SVG Version: 6.00 Build 0)  -->
<!DOCTYPE svg PUBLIC "-//W3C//DTD SVG 1.1//EN" "http://www.w3.org/Graphics/SVG/1.1/DTD/svg11.dtd">
<svg version="1.1" id="Layer_1" xmlns="http://www.w3.org/2000/svg" xmlns:xlink="http://www.w3.org/1999/xlink" x="0px" y="0px"
	 width="102.047px" height="102.047px" viewBox="0 0 102.047 102.047" enable-background="new 0 0 102.047 102.047"
	 xml:space="preserve">
<g>
	<g>
		<path d="M4.338,83.165c8.677-15.077,22.849-22.503,33.705-23.178c25.853-1.61,59.408-7.625,60.488,17.619
			c1.08,25.244-14.094,19.039-39.973,20.146C32.679,98.859,10.824,79.293,9.744,54.048c-0.185-4.33-6.453-5.581-5.7-14.905
			c0.323-4.005,3.793-7.165,6.842-9.015c2.424-1.47,5.2,0.448,4.863,5.244c-0.198,2.821-0.595,7.906,1.48,8.431
			c2.093,0.529,4.496-4.013,5.432-6.712c1.36-3.92,3.601-3.994,5.184-2.254c2.137,2.35,4.599,6.047,2.457,10.837
			c-3.185,7.121-8.858,6.575-8.886,8.114l-0.011-0.239c0.758,17.704,17.131,31.381,36.57,30.549s39.668,8.077,28.897-5.994
			c-4.672-6.104-15.359-4.997-28.807-5.058C24.76,72.896,3.055,85.395,4.338,83.165z"/>
		<g>
			<g>
				<g>
					<path fill="#9D9D9C" d="M24.738,63.72l6.365,2.866l6.618-6.533l7.533,4.855l7.697-5.848l7.377,6.601l9.032-7.309l4.375,7.008
						l7.111-6.759l2.082,8.718l11.052-1.541l-4.271,7.418l8.876,3.767l-5.561,5.576l4.219,7.083l-10.096,0.603l-2.073,7.088
						l-6.668-7.39l-5.123,7.741l-8.363-7.564l-6.687,7.651l-7.365-6.98l-8.83,4.907l-4.63-8.841l-9.77,1.498l-1.361-9.875
						l-9.553-1.748l2.268-10.14l-8.574-4.82c4.689,21.401,24.639,36.992,47.816,36c25.879-1.108,41.053,5.098,39.973-20.146
						c-1.08-25.244-33.065-18.919-60.488-17.619"/>
				</g>
			</g>
			<path fill="#D6B874" stroke="#000000" stroke-width="3" stroke-linejoin="round" stroke-miterlimit="10" d="M54.279,76.249"/>
		</g>
	</g>
</g>
<path fill="none" stroke="#FFFFFF" stroke-width="5" stroke-miterlimit="10" d="M25.746,62.22
	c1.63,4.346,7.427,12.648,14.061,14.904"/>
<path fill="none" stroke="#FFFFFF" stroke-width="5" stroke-miterlimit="10" d="M9.944,68.689
	c2.098,4.275,4.538,10.312,8.014,13.857"/>
<g>
	<path d="M50.659,43.261c0-2.182,1.515-3.757,3.575-3.757c2.181,0,3.575,1.575,3.575,3.757c0,2.12-1.394,3.757-3.575,3.757
		C52.113,47.018,50.659,45.381,50.659,43.261z M52.174,34.596L51.325,5.511h5.817l-0.848,29.085H52.174z"/>
</g>
<line fill="none" stroke="#FFFFFF" stroke-width="3" stroke-linecap="round" stroke-miterlimit="10" x1="6.779" y1="36.509" x2="13.884" y2="43.615"/>
<line fill="none" stroke="#FFFFFF" stroke-width="3" stroke-linecap="round" stroke-miterlimit="10" x1="13.884" y1="36.509" x2="6.779" y2="43.615"/>
</svg>
