<?xml version="1.0" encoding="utf-8"?>
<!-- Generator: Adobe Illustrator 17.0.0, SVG Export Plug-In . SVG Version: 6.00 Build 0)  -->
<!DOCTYPE svg PUBLIC "-//W3C//DTD SVG 1.1//EN" "http://www.w3.org/Graphics/SVG/1.1/DTD/svg11.dtd">
<svg version="1.1" id="Layer_1" xmlns="http://www.w3.org/2000/svg" xmlns:xlink="http://www.w3.org/1999/xlink" x="0px" y="0px"
	 width="102.047px" height="102.047px" viewBox="0 0 102.047 102.047" enable-background="new 0 0 102.047 102.047"
	 xml:space="preserve">
<g>
	<path fill="#FFF9C5" stroke="#000000" stroke-linejoin="round" stroke-miterlimit="10" d="M82.849,25.861
		c15.34,11.565,16.144,32.526,8.983,46.284C79.874,95.122,52.01,104.292,29.596,92.627S-1.293,52.879,10.666,29.902
		S50.488-2.245,72.902,9.42c3.845,2.001,7.279,1.257,11.45,3.311c1.643,0.809,4.177,3.549,4.257,7.114
		c0.064,2.835-0.628,5.068-3.521,4.15c-2.371-0.752-7.045-2.977-7.045-2.977s2.672,5.273,3.054,7.059
		c0.24,1.125-2.85,2.47-3.866,2.454c-1.938-0.031-5.74-2.033-7.773-5.653c-1.003-1.785-0.838-4.424-2.157-5.216l0.213,0.11
		c-15.718-8.181-35.743-0.821-44.725,16.439s-3.522,37.883,12.196,46.063c11.217,5.838,22.857,4.312,34.652-4.179
		C88.454,64.551,91.749,47.027,82.849,25.861z"/>
	<circle fill="#878787" stroke="#000000" stroke-linejoin="round" stroke-miterlimit="10" cx="82.59" cy="16.338" r="1.663"/>
	<g>
		<path fill="#D6B874" stroke="#000000" stroke-linejoin="round" stroke-miterlimit="10" d="M69.636,78.096"/>
		<g>
			<g>
				<path fill="#D6B874" stroke="#000000" stroke-width="1.0297" stroke-linejoin="round" stroke-miterlimit="10" d="M89.336,32.359
					l-0.709,3.668l5.614,5.7l-2.872,7.771l4.69,7.596l-6.643,6.025l2.357,8.996l-8.762,3.295l-0.767,9.329l-9.357,0.252
					l-3.763,8.572L60.2,90.74l-6.405,6.827l-7.407-5.713l-8.415,4.091l-4.797-8.033l-9.391,0.641l-1.555-9.288l-9.718-2.281
					l2.48-9.748L6.32,61.922l5.807-8.475l-6.421-8.123l8.25-5.808l-3.291-9.614l9.725-2.897l0.156-10.101l9.972,0.401l3.579-9.213
					l9.236,3.75l6.283-7.405l7.654,7.026l8.457-5.024C44.843-0.18,21.376,9.324,10.666,29.902
					c-11.958,22.977-3.483,51.06,18.931,62.725s50.278,2.495,62.236-20.482c5.975-11.481,6.405-27.978-2.531-39.844L89.336,32.359z"
					/>
			</g>
		</g>
	</g>
</g>
</svg>
