<?xml version="1.0" encoding="utf-8"?>
<!-- Generator: Adobe Illustrator 17.0.0, SVG Export Plug-In . SVG Version: 6.00 Build 0)  -->
<!DOCTYPE svg PUBLIC "-//W3C//DTD SVG 1.1//EN" "http://www.w3.org/Graphics/SVG/1.1/DTD/svg11.dtd">
<svg version="1.1" id="Layer_1" xmlns="http://www.w3.org/2000/svg" xmlns:xlink="http://www.w3.org/1999/xlink" x="0px" y="0px"
	 width="102.047px" height="102.047px" viewBox="0 0 102.047 102.047" enable-background="new 0 0 102.047 102.047"
	 xml:space="preserve">
<g>
	<path fill="#FFF9C5" stroke="#000000" stroke-linejoin="round" stroke-miterlimit="10" d="M19.966,26.297
		C4.626,37.861,3.822,58.822,10.983,72.581c11.958,22.977,39.823,32.147,62.236,20.482s30.889-39.748,18.931-62.725
		S52.327-1.81,29.913,9.856c-3.845,2.001-7.279,1.257-11.45,3.311c-1.643,0.809-4.177,3.549-4.257,7.114
		c-0.064,2.835,0.628,5.068,3.521,4.15c2.371-0.752,7.045-2.977,7.045-2.977s-2.672,5.273-3.054,7.059
		c-0.24,1.125,2.85,2.47,3.866,2.454c1.938-0.031,5.74-2.033,7.773-5.653c1.003-1.785,0.838-4.424,2.157-5.216l-0.213,0.11
		c15.718-8.181,35.743-0.821,44.725,16.439S83.549,74.53,67.831,82.71c-11.217,5.838-22.857,4.312-34.652-4.179
		C14.361,64.986,11.066,47.463,19.966,26.297z"/>
	<circle fill="#878787" stroke="#000000" stroke-linejoin="round" stroke-miterlimit="10" cx="20.225" cy="16.773" r="1.663"/>
	<g>
		<path fill="#D6B874" stroke="#000000" stroke-linejoin="round" stroke-miterlimit="10" d="M33.179,78.532"/>
		<g>
			<g>
				<path fill="#D6B874" stroke="#000000" stroke-width="1.0297" stroke-linejoin="round" stroke-miterlimit="10" d="M13.479,32.794
					l0.709,3.668l-5.614,5.7l2.872,7.771l-4.69,7.596l6.643,6.025l-2.357,8.996l8.762,3.295l0.767,9.329l9.357,0.252l3.763,8.572
					l8.923-2.822l6.405,6.827l7.407-5.713l8.415,4.091l4.797-8.033l9.391,0.641l1.555-9.288l9.718-2.281l-2.48-9.748l8.674-5.315
					l-5.807-8.475l6.421-8.123l-8.25-5.808l3.291-9.614l-9.725-2.897l-0.156-10.101l-9.972,0.401l-3.579-9.213l-9.236,3.75
					l-6.283-7.405l-7.654,7.026l-8.457-5.024c20.884-6.62,44.352,2.884,55.062,23.462c11.958,22.977,3.483,51.06-18.931,62.725
					s-50.278,2.495-62.236-20.482C5.007,61.1,4.578,44.603,13.514,32.737L13.479,32.794z"/>
			</g>
		</g>
	</g>
</g>
</svg>
