<?xml version="1.0" encoding="utf-8"?>
<!-- Generator: Adobe Illustrator 17.0.0, SVG Export Plug-In . SVG Version: 6.00 Build 0)  -->
<!DOCTYPE svg PUBLIC "-//W3C//DTD SVG 1.1//EN" "http://www.w3.org/Graphics/SVG/1.1/DTD/svg11.dtd">
<svg version="1.1" id="Layer_1" xmlns="http://www.w3.org/2000/svg" xmlns:xlink="http://www.w3.org/1999/xlink" x="0px" y="0px"
	 width="102.047px" height="102.047px" viewBox="0 0 102.047 102.047" enable-background="new 0 0 102.047 102.047"
	 xml:space="preserve">
<g>
	<g>
		<path d="M11.376,32.983c-7.968,15.464-6.526,31.398-1.21,40.888c12.66,22.598,41.385,30.109,63.185,17.334
			s28.857-41.248,15.761-63.596S47.727-2.5,25.927,10.275c-3.74,2.191-8.187-2.398-15.616,3.288
			c-3.191,2.443-3.966,7.071-3.868,10.636c0.078,2.834,3.195,4.127,7.043,1.244c2.263-1.695,6.322-4.785,7.887-3.326
			c1.579,1.472-0.936,5.953-2.696,8.203c-2.557,3.268-1.405,5.191,0.916,5.578c3.133,0.522,7.575,0.587,10.439-3.809
			c4.258-6.536,0.725-11.008,2.003-11.865l-0.207,0.12c15.288-8.959,35.656-2.613,45.494,14.175s5.418,37.658-9.87,46.617
			c-10.91,6.393-22.612,5.453-34.818-2.435C13.16,66.116,12.554,30.696,11.376,32.983z"/>
		<circle fill="#FFFFFF" cx="14.412" cy="17.345" r="2.723"/>
		<g>
			<g>
				<g>
					<path fill="#9D9D9C" d="M9.494,51.228l-3.756,7.753l6.389,5.753l-1.903,9.103l8.916,2.851l1.234,9.279l9.358-0.217l4.188,8.372
						l8.77-3.266l6.739,6.498l7.111-6.077l8.61,3.664l4.388-8.263l9.411,0.169l1.087-9.355l9.591-2.765l-2.966-9.612l8.397-5.744
						l-6.224-8.173l6.005-8.435l-8.531-5.387l2.805-9.767l-9.858-2.406l-0.663-10.08l-9.939,0.901l-4.037-9.022l-9.036,4.209
						l-6.647-7.08l-7.292,7.401l-8.698-4.593c20.526-7.659,44.441,0.656,56.17,20.671c13.096,22.348,6.04,50.821-15.761,63.596
						s-49.414,6.416-63.185-17.334c-4.918-8.482-5.811-19.914-2.832-30.338L9.494,51.228z"/>
				</g>
			</g>
			<path fill="#D6B874" stroke="#000000" stroke-width="3" stroke-linejoin="round" stroke-miterlimit="10" d="M32.633,78.701"/>
		</g>
	</g>
</g>
</svg>
